<?xml version="1.0" encoding="UTF-8"?>
<svg viewBox="0 0 640 480" xmlns="http://www.w3.org/2000/svg">
 <defs>
  <linearGradient id="o" x1="-.99721" x2="-.99721" y1=".99999" y2=".99999" gradientTransform="translate(-10 -7) matrix(-.50746 0 0 .50989 268.11 108.01)">
   <stop stop-color="#0d0d0d" offset="0"/>
   <stop stop-color="#1c1c1c" offset=".0658"/>
   <stop stop-color="#2d2d2d" offset=".1668"/>
   <stop stop-color="#333" offset=".2418"/>
   <stop stop-color="#b2b2b2" offset=".8956"/>
  </linearGradient>
  <linearGradient id="n" x1=".87008" x2=".065728" y1="-.001456" y2="-.001456" gradientTransform="translate(74.609 409.59) scale(.46488 .46343) translate(694.46 -293.28) scale(1.0916 1) translate(-600.66 667.19) scale(1 1.1003) translate(-121.41 -1043.5)">
   <stop stop-color="#adadad" offset=".0495"/>
   <stop stop-color="#e5e5e5" offset=".9011"/>
  </linearGradient>
  <linearGradient id="m" x1=".5" x2=".5" y1=".99999" y2=".99999" gradientTransform="translate(74.609 409.59) scale(.46488 .46343) translate(694.46 -293.28) scale(1.0916 1) translate(-600.66 667.19) scale(1 1.1003) translate(-121.41 -1043.5)">
   <stop stop-color="#adadad" offset=".0495"/>
   <stop stop-color="#e5e5e5" offset=".9011"/>
  </linearGradient>
  <linearGradient id="l" x1="9e-6" y1=".5" y2=".5" gradientTransform="translate(74.609 409.59) scale(.46488 .46343) translate(694.46 -293.28) scale(1.0916 1) translate(-600.66 667.19) scale(1 1.1003) translate(-121.41 -1043.5)">
   <stop stop-color="#adadad" offset=".0495"/>
   <stop stop-color="#e5e5e5" offset=".9011"/>
  </linearGradient>
  <linearGradient id="k" x1="-1.7e-5" x2=".99997" y1=".5" y2=".5" gradientTransform="translate(74.609 409.59) scale(.46488 .46343) translate(694.46 -293.28) scale(1.0916 1) translate(-600.66 667.19) scale(1 1.1003) translate(-121.41 -1043.5)">
   <stop stop-color="#666" offset=".236"/>
   <stop stop-color="#b3b3b3" offset=".6404"/>
   <stop stop-color="#a4a4a4" offset=".7508"/>
   <stop stop-color="#808080" offset=".9551"/>
  </linearGradient>
  <linearGradient id="q" x1="-1.1803" x2="-1.1803" y1="-3.0148" y2="-3.0148" gradientTransform="translate(-10 -7) matrix(-.50746 0 0 -.50989 18.846 586.68)">
   <stop stop-color="#5f9b2d" offset="0"/>
   <stop stop-color="#adc90e" offset=".6129"/>
  </linearGradient>
  <linearGradient id="r" x2=".66797" y2=".73047">
   <stop stop-color="#23487a" offset="0"/>
   <stop stop-color="#009ecb" offset="1"/>
  </linearGradient>
  <radialGradient id="j" cx="1547.5" cy="18119" r="309.42" gradientTransform="translate(-10 -7) matrix(.30699 0 0 .016867 -110.57 -146.58)" gradientUnits="userSpaceOnUse">
   <stop stop-color="#373636" offset="0"/>
   <stop stop-color="#3e3e3d" offset=".0742"/>
   <stop stop-color="#515150" offset=".1777"/>
   <stop stop-color="#6e6e6d" offset=".2987"/>
   <stop stop-color="#939393" offset=".4317"/>
   <stop stop-color="#9b9b9a" offset=".4581"/>
   <stop stop-color="#b9b8b8" offset=".5564"/>
   <stop stop-color="#d2d2d2" offset=".6658"/>
   <stop stop-color="#e2e2e2" offset=".7569"/>
   <stop stop-color="#e7e7e7" offset=".8177"/>
   <stop stop-color="#fff" offset="1"/>
  </radialGradient>
  <radialGradient id="p" cx="141.2" cy="267.6" r="40.296" gradientTransform="translate(-10 -7) matrix(-.35189 0 0 .33735 412.65 -84.238)" gradientUnits="userSpaceOnUse">
   <stop stop-color="#ebebeb" offset="0"/>
   <stop stop-color="#c2c2c2" offset=".6099"/>
   <stop stop-color="#bbb" offset=".7282"/>
   <stop stop-color="#ababab" offset=".8791"/>
  </radialGradient>
 </defs>
 <rect x="-3.8167" y="-2.9166" width="644" height="486" fill="url(#r)" stroke-width="0"/>
 <path d="m325.67 468.71c0 4.3478-61.354 7.8845-137.03 7.8845-75.68 0-137.03-3.5366-137.03-7.8845s61.348-7.8865 137.03-7.8865c75.68 0 137.03 3.5386 137.03 7.8865z" fill="url(#j)"/>
 <polygon points="197.66 278.47 203.67 428.07 172.84 428.07 180.36 279.99" fill="url(#k)"/>
 <path d="m316.1 296.43l-1.0641-12.791c-0.23752-2.7657-2.0882-5.1448-4.7118-6.03l-74.589-25.203c-1.4397-0.47983-2.9509-0.48288-4.3906-0.006134l-18.316 6.0728c-2.2658 0.74545-3.9872 2.6178-4.5525 4.9546l-2.0075 8.1797c-0.92256 3.7288 1.3524 7.5214 5.0787 8.4336l95.976 23.745c0.17154 0.04538 0.34006 0.087708 0.51105 0.1178 2.0045 0.33194 4.0957-0.23862 5.6612-1.5796 1.6985-1.4517 2.5911-3.662 2.4048-5.8933z" fill="url(#l)"/>
 <path d="m129.06 137.84l12.693-1.4037c2.7561-0.30183 5.4273 1.0626 6.7945 3.4785l38.928 68.726c0.74545 1.3226 1.0367 2.8171 0.84441 4.3269l-2.4099 19.219c-0.29738 2.3883-1.8 4.4447-3.9638 5.4619l-7.6028 3.5417c-3.4833 1.6245-7.615 0.10248-9.2257-3.3969l-41.602-90.079c-0.072067-0.16621-0.13802-0.32631-0.19842-0.4951-0.71857-1.9202-0.56175-4.0822 0.44759-5.8821 1.0977-1.9509 3.0869-3.2704 5.2954-3.4969z" fill="url(#m)"/>
 <path d="m130.53 151.33c0.94084-1.6607 2.6444-2.7958 4.5347-2.989l10.888-1.2079c1.3793-0.15399 2.7256 0.19324 3.8436 0.90913l-2.5754-4.5564c-1.0672-1.881-3.1554-2.9466-5.3071-2.7111l-9.9047 1.0957c-1.7218 0.18102-3.2726 1.208-4.1318 2.7264-0.78758 1.4073-0.91038 3.095-0.34863 4.5926 0.048203 0.12695 0.102 0.25085 0.15326 0.38648l2.1095 4.5625c0.020828-0.96982 0.24919-1.9391 0.73889-2.8085z" fill="#fff"/>
 <path d="m107.33 369.67l-7.5638-10.359c-1.6381-2.2379-1.7853-5.2483-0.3938-7.6484l39.775-68.228c0.77237-1.3104 1.8964-2.3159 3.3087-2.9135l17.769-7.4944c2.1907-0.93924 4.727-0.66135 6.6864 0.7276l6.8487 4.8338c3.1402 2.2134 3.9034 6.5704 1.6914 9.7226l-56.844 81.241c-0.10503 0.14835-0.21007 0.27786-0.31818 0.41354-1.3011 1.5852-3.2427 2.5367-5.2979 2.5545-2.2323 0.01889-4.3571-1.0478-5.6613-2.8503z" fill="url(#n)"/>
 <path d="m160.67 261.06c0 14.306 11.545 25.9 25.78 25.9 14.247 0 25.79-11.594 25.79-25.9 0-14.312-11.543-25.898-25.79-25.898-14.235 5.34e-4 -25.78 11.586-25.78 25.898z" fill="url(#o)"/>
 <path d="m186.45 239.59c-7.957 0-15.094 4.1123-19.99 9.022 4.1769-6.6913 11.551-11.148 19.99-11.148 8.4295 0 15.813 4.457 19.993 11.148-4.9011-4.9097-12.023-9.022-19.993-9.022z" fill="url(#p)"/>
 <g fill="#fff">
  <path d="m118.93 361c-1.9025 0.021881-3.7294-0.89636-4.8473-2.448l-6.4818-8.8686c-0.81448-1.1264-1.193-2.4699-1.1301-3.8013l-2.6413 4.5253c-1.088 1.8692-0.97079 4.2158 0.31564 5.9672l5.8896 8.0706c1.0154 1.4104 2.6804 2.2497 4.4175 2.2308 1.6076-0.014771 3.1224-0.75104 4.1379-1.9865 0.084244-0.1055 0.16544-0.21417 0.2583-0.32886l2.8758-4.1158c-0.85254 0.465-1.7934 0.74899-2.7941 0.75516z"/>
  <path d="m301.76 298.34c1.4904-1.1957 2.3257-3.0706 2.2268-4.9791l-0.5532-10.997c-0.077637-1.3828-0.62466-2.6632-1.5087-3.6564l4.8894 1.8269c2.0222 0.75204 3.4015 2.657 3.5132 4.8281l0.5019 9.9975c0.098938 1.7392-0.66733 3.4484-2.0258 4.5355-1.2585 1.0086-2.8936 1.3981-4.453 1.081-0.13544-0.030579-0.2674-0.063232-0.40594-0.090729l-4.8138-1.3619c0.94592-0.19067 1.8593-0.55884 2.6292-1.184z"/>
 </g>
 <path d="m241.56 404.92c-36.22 0-53.322 21.529-90.543 21.529-26.394 0-40.671-10.668-60.005-16.87v43.419c0 8.8354 7.1517 16.022 15.948 16.022h167.41c8.7898 0 15.938-7.1864 15.938-16.022v-38.57c-14.295-4.9337-32.058-9.5079-48.751-9.5079z" fill="url(#q)"/>
 <path d="m553.67 476.3c0 5.1274-76.802 9.2982-171.54 9.2982-94.733 0-171.53-4.1708-171.53-9.2982s76.794-9.3006 171.53-9.3006c94.733 0 171.54 4.1731 171.54 9.3006z" fill="url(#j)"/>
 <polygon points="393.43 251.95 400.96 428.37 362.36 428.37 371.78 253.74" fill="url(#k)"/>
 <path d="m541.69 273.12l-1.332-15.084c-0.2973-3.2616-2.6139-6.0673-5.8981-7.1112l-93.368-29.722c-1.8022-0.56586-3.6939-0.56946-5.4961-0.007217l-22.928 7.1617c-2.8363 0.87912-4.991 3.0872-5.6986 5.843l-2.513 9.6463c-1.1548 4.3975 1.6929 8.8701 6.3574 9.9458l120.14 28.002c0.21472 0.053528 0.42566 0.10342 0.63971 0.13892 2.5092 0.39148 5.1269-0.28137 7.0866-1.8629 2.126-1.712 3.2435-4.3186 3.0102-6.95z" fill="url(#l)"/>
 <path d="m307.57 86.098l15.889-1.6554c3.4499-0.35595 6.7938 1.2531 8.5051 4.1022l48.728 81.049c0.93317 1.5598 1.2978 3.3223 1.057 5.1028l-3.0168 22.665c-0.37219 2.8166-2.2531 5.2417-4.9618 6.4413l-9.5169 4.1768c-4.3603 1.9158-9.5323 0.12086-11.548-4.006l-52.076-106.23c-0.09024-0.19601-0.17279-0.38482-0.24838-0.58388-0.89951-2.2646-0.70319-4.8142 0.56021-6.9368 1.374-2.3007 3.8642-3.8569 6.6287-4.1239z" fill="url(#m)"/>
 <path d="m309.4 102.01c1.1777-1.9585 3.3102-3.297 5.6764-3.5249l13.629-1.4245c1.7266-0.1816 3.4118 0.22789 4.8112 1.0722l-3.2238-5.3734c-1.3358-2.2183-3.9498-3.475-6.6432-3.1972l-12.398 1.2922c-2.1553 0.21347-4.0965 1.4245-5.172 3.2153-0.98587 1.6596-1.1396 3.65-0.43637 5.4161 0.060333 0.14971 0.12766 0.29584 0.19183 0.45576l2.6406 5.3806c0.026031-1.1437 0.31192-2.2868 0.9249-3.312z" fill="#fff"/>
 <path d="m280.36 359.5l-9.468-12.216c-2.0506-2.6392-2.2348-6.1894-0.49298-9.0198l49.789-80.461c0.9668-1.5454 2.3738-2.7312 4.1417-3.4359l22.243-8.8382c2.7422-1.1076 5.9171-0.77992 8.3697 0.85809l8.573 5.7005c3.9308 2.6104 4.8862 7.7486 2.1172 11.466l-71.156 95.808c-0.1315 0.17493-0.26297 0.3277-0.39832 0.48767-1.6287 1.8695-4.0591 2.9915-6.6318 3.0126-2.7944 0.022247-5.454-1.2357-7.0866-3.3614z" fill="url(#n)"/>
 <path d="m347.13 231.41c0 16.871 14.452 30.544 32.271 30.544 17.834 0 32.283-13.673 32.283-30.544 0-16.878-14.449-30.542-32.283-30.542-17.819 6.26e-4 -32.271 13.663-32.271 30.542z" fill="url(#o)"/>
 <path d="m379.4 206.09c-9.9604 0-18.895 4.8496-25.022 10.64 5.2286-7.8911 14.46-13.147 25.022-13.147 10.552 0 19.794 5.2561 25.026 13.147-6.135-5.7901-15.05-10.64-25.026-10.64z" fill="url(#p)"/>
 <g fill="#fff">
  <path d="m294.88 349.27c-2.3814 0.025818-4.6683-1.0571-6.0677-2.8869l-8.1137-10.459c-1.0195-1.3283-1.4934-2.9128-1.4146-4.4829l-3.3063 5.3368c-1.3619 2.2044-1.2152 4.9716 0.39508 7.0372l7.3725 9.5176c1.2711 1.6633 3.3552 2.6531 5.5297 2.6308 2.0124-0.017426 3.9085-0.88574 5.1797-2.3428 0.10541-0.12442 0.20709-0.25256 0.3233-0.38782l3.5998-4.8538c-1.0671 0.54834-2.2449 0.88324-3.4976 0.89053z"/>
  <path d="m523.74 275.38c1.8657-1.4101 2.9112-3.6212 2.7874-5.8719l-0.6924-12.969c-0.097168-1.6308-0.78186-3.1407-1.8885-4.3121l6.1204 2.1545c2.5314 0.8869 4.2579 3.1334 4.3977 5.6938l0.6283 11.79c0.12384 2.0511-0.83539 4.0667-2.5359 5.3487-1.5754 1.1894-3.6221 1.6488-5.5742 1.2748-0.16956-0.036102-0.33472-0.074585-0.50818-0.10702l-6.0258-1.6061c1.1841-0.22488 2.3275-0.65909 3.2911-1.3963z"/>
 </g>
 <path d="m448.38 401.07c-45.339 0-66.747 25.389-113.34 25.389-33.039 0-50.91-12.581-75.112-19.895v51.205c0 10.42 8.9523 18.895 19.963 18.895h209.56c11.003 0 19.951-8.475 19.951-18.895v-45.486c-17.894-5.8184-40.128-11.213-61.024-11.213z" fill="url(#q)"/>
</svg>
